<?xml version="1.0" encoding="utf-8"?>
<!-- Generator: Adobe Illustrator 23.0.1, SVG Export Plug-In . SVG Version: 6.00 Build 0)  -->
<svg version="1.1" id="Layer_1" xmlns="http://www.w3.org/2000/svg" xmlns:xlink="http://www.w3.org/1999/xlink" x="0px" y="0px"
	 viewBox="0 0 20 16" style="enable-background:new 0 0 20 16;" xml:space="preserve">
<style type="text/css">
	.st0{fill-rule:evenodd;clip-rule:evenodd;fill:#FFFFFF;}
</style>
<title>camera [#980]</title>
<desc>Created with Sketch.</desc>
<g id="Page-1">
	<g id="Dribbble-Light-Preview" transform="translate(-60.000000, -3881.000000)">
		<g id="icons" transform="translate(56.000000, 160.000000)">
			<path class="st0" d="M14,3728.5c-2.2,0-4,1.8-4,4s1.8,4,4,4s4-1.8,4-4S16.2,3728.5,14,3728.5L14,3728.5z M11,3725h6v-2h-6V3725z
				 M19,3721H9v4H4v12h4v-2H6v-8h16v8h-2v2h4v-12h-1v-2h-2v2h-2V3721z M14,3730.5c1.1,0,2,0.9,2,2s-0.9,2-2,2s-2-0.9-2-2
				S12.9,3730.5,14,3730.5L14,3730.5z"/>
		</g>
	</g>
</g>
</svg>
