<?xml version="1.0" encoding="utf-8"?>
<!-- Generator: Adobe Illustrator 23.0.1, SVG Export Plug-In . SVG Version: 6.00 Build 0)  -->
<svg version="1.1" id="Layer_1" xmlns="http://www.w3.org/2000/svg" xmlns:xlink="http://www.w3.org/1999/xlink" x="0px" y="0px"
	 viewBox="0 0 20 17" style="enable-background:new 0 0 20 17;" xml:space="preserve">
<style type="text/css">
	.st0{fill-rule:evenodd;clip-rule:evenodd;fill:#62666B;}
</style>
<title>video_camera_round [#964]</title>
<desc>Created with Sketch.</desc>
<g id="Page-1">
	<g id="Dribbble-Light-Preview" transform="translate(-300.000000, -3921.000000)">
		<g id="icons" transform="translate(56.000000, 160.000000)">
			<path class="st0" d="M262,3771.3L262,3771.3v2.5l-2.2-1.4L262,3771.3L262,3771.3z M256,3774.9c0,0.6-0.4,1-1,1h-8
				c-0.6,0-1-0.5-1-1v-4.1c0-0.6,0.4-1,1-1h8c0.6,0,1,0.5,1,1V3774.9z M248.1,3765.1c0.6,0,1,0.5,1,1c0,0.6-0.4,1-1,1s-1-0.5-1-1
				S247.6,3765.1,248.1,3765.1L248.1,3765.1z M253.1,3763.1c1.1,0,2,0.9,2,2.1c0,1.1-0.9,2.1-2,2.1s-2-0.9-2-2.1
				S252,3763.1,253.1,3763.1L253.1,3763.1z M262.5,3768.2l-4.5,2.9v-1.8c0-1-0.6-1.8-1.5-2c0.4-0.6,0.6-1.3,0.6-2.1
				c0-2.3-1.8-4.1-4-4.1c-1.6,0-3,1-3.6,2.4c-0.4-0.2-0.9-0.4-1.4-0.4c-1.7,0-3,1.4-3,3.1c0,0.4,0,0.8,0.2,1.2
				c-0.7,0.3-1.3,1-1.3,1.9v6.2c0,1.1,1.1,2.6,2.2,2.6h10c1.1,0,1.8-1.4,1.8-2.6v-1.8l4.5,2.9c0.7,0.4,1.5-0.1,1.5-0.9v-6.6
				C264,3768.2,263.1,3767.7,262.5,3768.2L262.5,3768.2z"/>
		</g>
	</g>
</g>
</svg>
